<svg width="160" height="142" viewBox="0 0 160 142" fill="none" xmlns="http://www.w3.org/2000/svg">
<g clip-path="url(#clip0_1019_19)">
<path d="M146.077 20.0983C147.177 20.1221 148.3 20.4561 149.364 20.7543C154.108 22.1141 155.901 23.8317 160 26.1099C153.57 26.0145 153.045 31.036 148.264 33.8868C141.727 33.5528 143.95 36.9045 139.982 39.6717C138.512 40.6975 136.6 40.7333 135.202 41.9499C133.122 43.7868 132.501 47.8661 132.238 50.6453C131.975 53.3767 132.106 56.5972 133.911 58.6727C134.712 59.603 135.668 60.4857 136.229 61.6427C137.042 63.3245 137.221 65.6265 138.309 67.0817C139.635 68.859 141.536 69.9444 142.826 71.7813L142.934 71.9363C141.189 72.9144 139.002 72.9263 137.377 74.143C136.182 75.0375 135.704 76.4331 134.676 77.4708C133.266 78.9021 131.162 79.4508 130.254 81.5143C129.764 82.6236 129.549 84.0192 128.605 84.7706C127.756 85.4505 126.896 84.7945 126.059 85.2477C124.231 86.2496 123.537 89.5894 122.94 91.5933C117.634 91.1042 117.729 94.289 113.774 95.6845C113.642 95.7322 113.307 95.8634 113.164 95.8396C112.483 95.7441 111.061 94.1339 110.32 93.6926C108.276 92.464 103.532 92.6071 101.356 93.3824C98.1536 94.5156 100.054 97.5452 98.2253 99.1793C97.2811 100.026 96.086 100.289 94.9626 100.694C93.6002 101.207 91.5566 102.591 90.6005 103.831C90.1822 104.368 89.8954 105.084 89.6086 105.704C87.8159 106.169 86.9435 106.694 85.7962 108.364C84.6131 108.924 83.2746 108.507 82.0556 109.067C80.8605 109.628 80.2151 110.63 79.7132 111.93C80.7529 114.745 83.5972 119.23 86.0711 120.614C87.2662 121.281 90.5049 121.437 91.1981 122.486C90.72 122.868 89.0708 122.88 88.2462 123.393C86.8718 124.24 86.1906 125.778 84.9836 126.816C83.8363 127.806 81.0875 128.355 79.6176 128.975C79.522 127.818 79.3666 126.673 79.271 125.516C80.0717 124.955 81.4461 124.514 81.7926 123.44C82.0317 122.713 81.7329 121.782 81.4222 121.138C80.717 119.695 76.6059 115.318 75.2315 114.924C73.2477 114.34 71.5506 116.403 69.5787 116.415C68.6704 116.415 67.9534 115.652 67.0929 115.461C65.4556 115.115 63.7825 115.699 62.1571 115.401C60.8784 115.163 57.9504 113.326 56.2414 112.741C54.628 113.779 53.2298 115.64 51.4371 116.272C50.3018 116.677 49.011 116.439 47.8638 116.94C46.8599 117.381 46.0711 118.228 45.0194 118.598C43.5972 118.24 42.5934 118.133 41.1712 118.622C39.6056 117.906 38.1954 116.809 36.6418 116.117C35.7693 115.723 34.9806 115.807 34.1201 116.26C31.9928 117.393 30.0807 120.59 29.3995 123.071C29.0051 124.514 29.256 125.468 29.8536 126.744C30.0209 127.031 30.2241 127.305 30.4033 127.579C30.5109 127.734 30.6304 127.889 30.726 128.068C31.1443 128.784 31.694 129.965 31.5626 130.824C31.3594 131.098 31.2041 131.205 30.8814 131.253C28.9573 131.563 26.9376 126.756 25.133 125.921C20.2808 123.667 14.5205 123.965 10.2659 120.303C10.9232 119.981 11.7239 119.671 12.3095 119.206C13.5644 118.204 14.1978 115.771 14.4727 114.149C14.8073 112.133 15.2973 106.431 14.0424 104.94C13.3732 104.153 12.2737 103.974 11.6164 103.151C10.8156 102.137 10.3137 100.766 9.64445 99.6207C9.023 98.5472 8.27009 97.5691 7.63668 96.4956C7.42157 91.7483 6.03525 89.3628 3.657 85.5936C3.90797 83.8641 3.32237 80.5005 2.37824 79.093C1.92411 78.425 1.23095 77.8644 0.89632 77.113C0.454133 76.0991 0.382427 74.8467 0.107554 73.7494C1.20705 72.7474 1.74484 71.5546 1.95996 69.9802C2.4141 66.6881 1.63728 64.5053 -0.0358582 61.8812C0.370476 61.7142 0.872418 61.5472 1.23095 61.2491C2.42605 60.2591 3.54944 57.8735 4.02748 56.3229C4.23065 55.6311 4.37406 54.7365 4.67284 54.1163C4.8043 53.8538 4.86405 53.83 5.10307 53.7584C5.35404 53.8061 5.49746 53.9016 5.67672 54.1163C6.50134 55.1063 6.42963 56.8596 7.13474 57.957C8.71227 60.3903 11.5327 61.6307 13.7317 63.1814C14.6161 63.8016 15.4407 64.5292 16.349 65.1017C17.3528 65.7339 18.1536 65.3045 19.1694 64.9586C20.5318 65.4357 21.7628 66.3899 23.173 66.7239C24.4995 67.0459 25.7783 66.8193 27.1168 67.2726C29.746 68.1791 32.3633 69.5389 35.0284 70.2307C36.2832 70.5527 37.6337 70.0279 38.8407 70.3738C41.4341 71.1252 43.418 73.6062 46.3101 73.4392C48.8796 73.2842 50.481 70.2187 53.3134 69.9563C55.1897 69.7893 57.0421 70.3022 58.9065 70.4573C60.8903 70.6243 62.9698 70.2664 64.9298 69.9444C69.9731 69.0975 74.9089 67.3322 78.052 62.4776C79.2471 60.6169 81.0517 57.4799 81.2907 55.2017C81.3624 54.486 81.219 53.7226 81.1234 53.0189C84.8521 49.4167 91.3056 51.4922 95.7873 51.0866C99.265 50.7765 102.635 49.7268 105.874 48.2597C112.853 45.0989 117.693 41.4609 123.119 35.5447C125.031 33.4574 126.681 30.881 128.963 29.2827C130.541 28.1734 132.405 27.8036 134.186 27.3384C136.66 26.6705 139.337 26.0025 141.595 24.6428C141.894 24.4638 142.193 24.273 142.48 24.0583C142.767 23.8436 143.042 23.617 143.304 23.3665C143.567 23.116 143.818 22.8655 144.057 22.5912C144.296 22.3168 144.523 22.0306 144.739 21.7324C145.085 21.2553 145.408 20.5396 145.862 20.1937C145.922 20.146 145.981 20.1102 146.041 20.0625L146.077 20.0983Z" fill="#2771FF"/>
<path d="M72.0167 62.5969C62.7547 62.5969 55.2495 55.1062 55.2495 45.8622C55.2495 36.6182 62.7547 29.1276 72.0167 29.1276C81.2788 29.1276 88.784 36.6182 88.784 45.8622C88.784 55.0943 81.2788 62.5849 72.0167 62.5969ZM72.0167 35.831C66.4595 35.831 61.954 40.3277 61.954 45.8741C61.954 51.4205 66.4595 55.9173 72.0167 55.9173C77.5739 55.9173 82.0795 51.4205 82.0795 45.8741C82.0795 40.3277 77.5739 35.8429 72.0167 35.831Z" fill="#2771FF"/>
<path d="M72.0167 102.758L43.7406 69.4672C43.3463 68.9663 42.9638 68.4653 42.5694 67.9524C37.7412 61.5949 35.1359 53.8419 35.1359 45.8741C35.1359 25.5492 51.6522 9.06506 72.0167 9.06506C92.3812 9.06506 108.897 25.5492 108.897 45.8741C108.897 53.8419 106.292 61.5949 101.476 67.9524C101.476 67.9524 100.472 69.2764 100.317 69.4553L72.0287 102.758H72.0167ZM47.9235 63.9208C47.9235 63.9208 48.7003 64.9466 48.8796 65.1733L72.0167 92.4043L95.1777 65.1375C95.3212 64.9586 96.1099 63.9208 96.1099 63.9089C100.054 58.7203 102.193 52.3867 102.181 45.8622C102.181 29.2349 88.6764 15.7446 72.0048 15.7446C55.3331 15.7446 41.8285 29.223 41.8285 45.8622C41.8285 52.3867 43.9558 58.7203 47.9115 63.9089" fill="#2771FF"/>
<path d="M76.8569 62.5969C67.5949 62.5969 60.0896 55.1062 60.0896 45.8622C60.0896 36.6182 67.5949 29.1276 76.8569 29.1276C86.1189 29.1276 93.6241 36.6182 93.6241 45.8622C93.6241 55.0943 86.1189 62.5849 76.8569 62.5969ZM76.8569 35.831C71.2997 35.831 66.7941 40.3277 66.7941 45.8741C66.7941 51.4205 71.2997 55.9173 76.8569 55.9173C82.4141 55.9173 86.9196 51.4205 86.9196 45.8741C86.9196 40.3277 82.4141 35.8429 76.8569 35.831Z" fill="white"/>
<path d="M76.8569 102.758L48.5808 69.4672C48.1864 68.9663 47.804 68.4653 47.4096 67.9524C42.5814 61.5949 39.9761 53.8419 39.9761 45.8741C39.9761 25.5492 56.4924 9.06506 76.8569 9.06506C97.2214 9.06506 113.738 25.5492 113.738 45.8741C113.738 53.8419 111.132 61.5949 106.316 67.9524C106.316 67.9524 105.312 69.2764 105.157 69.4553L76.8688 102.758H76.8569ZM52.7637 63.9208C52.7637 63.9208 53.5405 64.9466 53.7198 65.1733L76.8569 92.4043L100.018 65.1375C100.161 64.9586 100.95 63.9208 100.95 63.9089C104.894 58.7203 107.033 52.3867 107.021 45.8622C107.021 29.2349 93.5166 15.7446 76.8449 15.7446C60.1733 15.7446 46.6687 29.223 46.6687 45.8622C46.6687 52.3867 48.7959 58.7203 52.7517 63.9089" fill="white"/>
</g>
<defs>
<clipPath id="clip0_1019_19">
<rect width="160" height="142" fill="white"/>
</clipPath>
</defs>
</svg>
