<svg width="366" height="431" viewBox="0 0 366 431" fill="none" xmlns="http://www.w3.org/2000/svg">
<g clip-path="url(#clip0_1026_18)">
<path d="M133.02 297.718C133.02 297.718 129.574 271.893 130.975 262.81C132.887 250.197 142.113 226.037 142.113 226.037L137.823 216.799L116.857 228.724L104.184 272.492L109.431 304.935L133.02 297.741V297.718Z" fill="#FFD0BE"/>
<path d="M126.928 299.517C126.928 299.517 123.482 273.691 124.883 264.609C126.795 251.996 136.022 227.836 136.022 227.836L131.731 218.598L110.765 230.522L98.0921 274.291L103.339 306.734L126.928 299.539V299.517Z" fill="url(#paint0_linear_1026_18)"/>
<path d="M121.392 299.184C121.392 299.184 117.946 273.358 119.347 264.276C121.259 251.663 130.486 227.502 130.486 227.502L126.195 218.265L105.229 230.189L92.5561 273.958L97.8031 306.401L121.392 299.206V299.184Z" fill="#FFD0BE"/>
<path d="M197.821 58.554L81.8172 92.8963C76.0015 94.6181 72.6843 100.723 74.4081 106.531L142.057 334.49C143.781 340.299 149.893 343.612 155.709 341.89L271.713 307.548C277.528 305.826 280.845 299.722 279.122 293.913L211.472 65.9541C209.748 60.1454 203.636 56.8323 197.821 58.554Z" fill="url(#paint1_linear_1026_18)"/>
<path d="M198.17 66.3724L85.8112 99.6357C83.0329 100.458 81.4481 103.375 82.2717 106.15L144.07 314.393C144.894 317.168 147.814 318.751 150.592 317.929L262.951 284.665C265.729 283.843 267.314 280.926 266.49 278.151L204.691 69.9077C203.868 67.1327 200.948 65.5499 198.17 66.3724Z" fill="white"/>
<path d="M219.129 310.687C220.596 315.595 217.772 320.769 212.859 322.212C207.945 323.655 202.765 320.857 201.32 315.95C199.853 311.042 202.676 305.868 207.59 304.425C212.503 302.959 217.684 305.779 219.129 310.687Z" fill="white"/>
<path d="M103.161 156.665L115.656 198.768L135.577 192.861C148.272 189.108 161.612 196.325 165.369 209.005L171.083 228.258L213.237 215.778L200.72 173.586L191.36 142.053L188.225 131.483L103.161 156.665Z" fill="#BDDDEF"/>
<path d="M190.431 246.636L148.288 259.112L160.779 301.204L202.922 288.728L190.431 246.636Z" fill="#BDDDEF"/>
<path d="M142.535 260.825L129.34 264.732L141.831 306.823L155.026 302.917L142.535 260.825Z" fill="#BDDDEF"/>
<path d="M126.239 254.372L235.359 222.084L189.87 68.8392" stroke="#A3C1D8" stroke-width="5.55" stroke-miterlimit="10"/>
<path d="M113.744 212.269L135.999 205.674C143.87 203.342 152.118 207.828 154.453 215.689L162.723 243.58" stroke="#A3C1D8" stroke-width="5.55" stroke-miterlimit="10"/>
<path d="M198.43 233.01L217.728 298.052" stroke="#A3C1D8" stroke-width="5.55" stroke-miterlimit="10"/>
<path d="M126.239 254.372L130.686 253.062" stroke="#749AB2" stroke-width="0.69" stroke-miterlimit="10"/>
<path d="M133.732 252.174L229.4 223.839" stroke="#749AB2" stroke-width="0.69" stroke-miterlimit="10" stroke-dasharray="4.27 1.42"/>
<path d="M230.912 223.394L235.359 222.084L234.025 217.643" stroke="#749AB2" stroke-width="0.69" stroke-miterlimit="10"/>
<path d="M233.158 214.712L191.626 74.7461" stroke="#749AB2" stroke-width="0.69" stroke-miterlimit="10" stroke-dasharray="4.15 1.38"/>
<path d="M191.182 73.2583L189.87 68.8392" stroke="#749AB2" stroke-width="0.69" stroke-miterlimit="10"/>
<path d="M113.744 212.269L118.191 210.959" stroke="#749AB2" stroke-width="0.69" stroke-miterlimit="10"/>
<path d="M121.214 210.071L135.999 205.696C143.87 203.364 152.118 207.85 154.453 215.711L160.967 237.651" stroke="#749AB2" stroke-width="0.69" stroke-miterlimit="10" stroke-dasharray="4.26 1.42"/>
<path d="M161.434 239.139L162.746 243.58" stroke="#749AB2" stroke-width="0.69" stroke-miterlimit="10"/>
<path d="M198.43 233.01L199.741 237.451" stroke="#749AB2" stroke-width="0.69" stroke-miterlimit="10"/>
<path d="M200.542 240.116L216.016 292.278" stroke="#749AB2" stroke-width="0.69" stroke-miterlimit="10" stroke-dasharray="3.77 1.26"/>
<path d="M216.416 293.61L217.728 298.052" stroke="#749AB2" stroke-width="0.69" stroke-miterlimit="10"/>
<path opacity="0.5" d="M188.403 182.713C190.893 191.107 186.09 199.945 177.686 202.432C169.282 204.919 160.433 200.122 157.943 191.728C155.453 183.334 160.256 174.496 168.66 172.009C177.064 169.522 185.913 174.319 188.403 182.713Z" fill="white"/>
<path d="M182.333 184.489C183.845 189.552 180.955 194.859 175.885 196.369C170.816 197.879 165.503 194.993 163.991 189.93C162.479 184.867 165.369 179.559 170.438 178.049C175.507 176.562 180.821 179.426 182.333 184.489Z" fill="#FFC729" stroke="white" stroke-width="1.78" stroke-miterlimit="10"/>
<path d="M178.398 255.26C178.398 255.46 178.353 255.571 178.353 255.571C177.508 259.546 175.107 264.676 172.106 270.738C168.815 277.333 164.858 284.994 161.434 293.477C153.074 314.24 154.364 328.852 144.937 344.285C142.736 347.86 140.379 351.169 138.112 354.011C129.952 364.27 122.86 375.396 118.947 388.453C114.811 402.31 112.255 421.873 109.987 431L60.6739 414.834C60.6739 414.834 73.947 373.53 78.527 349.415C83.107 325.276 78.5937 285.55 78.6382 271.715C78.6604 257.925 108.942 223.083 108.942 223.083L115.723 245.867C115.723 245.867 111.032 261.434 110.543 274.158C110.387 278.51 111.676 285.705 112.922 291.412C114.167 296.986 120.925 299.295 125.239 295.52C127.573 293.477 130.197 290.546 133.042 286.371C143.648 270.805 146.115 259.368 162.323 249.376C162.323 249.376 174.596 243.002 178.02 249.909C178.731 251.33 178.798 253.151 178.376 255.305L178.398 255.26Z" fill="#FFD0BE"/>
<path style="mix-blend-mode:screen" d="M178.398 255.26C178.398 255.46 178.353 255.571 178.353 255.571C177.508 259.546 175.107 264.676 172.106 270.738C170.283 268.029 166.281 266.519 164.636 265.964C164.213 265.83 163.924 265.386 164.013 264.964C165.036 259.591 170.616 249.376 174.863 249.553C178.754 249.731 178.531 254.083 178.398 255.283V255.26Z" fill="#FFD0BE"/>
<mask id="path-28-inside-1_1026_18" fill="white">
<path d="M225.421 95.8198C225.421 65.0864 198.83 40.5485 167.415 43.9239C143.514 46.4998 124.082 65.7526 121.281 89.602C119.769 102.415 122.993 114.384 129.329 124.155H129.285L129.774 124.865C129.774 124.865 129.863 124.999 129.908 125.088L170.816 185.977C171.928 187.642 174.396 187.642 175.507 185.977L217.039 124.155H216.994C222.308 115.983 225.421 106.279 225.421 95.8198ZM173.195 83.1622C180.154 83.1622 185.824 88.8248 185.824 95.8198C185.824 102.815 180.154 108.433 173.195 108.433C166.236 108.433 160.522 102.77 160.522 95.8198C160.522 88.8692 166.192 83.1622 173.195 83.1622Z"/>
</mask>
<path d="M225.421 95.8198C225.421 65.0864 198.83 40.5485 167.415 43.9239C143.514 46.4998 124.082 65.7526 121.281 89.602C119.769 102.415 122.993 114.384 129.329 124.155H129.285L129.774 124.865C129.774 124.865 129.863 124.999 129.908 125.088L170.816 185.977C171.928 187.642 174.396 187.642 175.507 185.977L217.039 124.155H216.994C222.308 115.983 225.421 106.279 225.421 95.8198ZM173.195 83.1622C180.154 83.1622 185.824 88.8248 185.824 95.8198C185.824 102.815 180.154 108.433 173.195 108.433C166.236 108.433 160.522 102.77 160.522 95.8198C160.522 88.8692 166.192 83.1622 173.195 83.1622Z" stroke="white" stroke-width="18" mask="url(#path-28-inside-1_1026_18)"/>
<path d="M225.421 95.8198C225.421 65.0864 198.83 40.5485 167.415 43.9239C143.514 46.4998 124.082 65.7526 121.281 89.602C119.769 102.415 122.993 114.384 129.329 124.155H129.285L129.774 124.865C129.774 124.865 129.863 124.999 129.908 125.088L170.816 185.977C171.928 187.642 174.396 187.642 175.507 185.977L217.039 124.155H216.994C222.308 115.983 225.421 106.279 225.421 95.8198ZM173.195 83.1622C180.154 83.1622 185.824 88.8248 185.824 95.8198C185.824 102.815 180.154 108.433 173.195 108.433C166.236 108.433 160.522 102.77 160.522 95.8198C160.522 88.8692 166.192 83.1622 173.195 83.1622Z" stroke="#003177" stroke-width="18" mask="url(#path-28-inside-1_1026_18)"/>
<mask id="path-29-inside-2_1026_18" fill="white">
<path d="M232.819 95.3069C232.819 64.5736 206.228 40.0357 174.813 43.4111C150.912 45.987 131.481 65.2397 128.679 89.0892C127.167 101.902 130.391 113.871 136.728 123.642H136.683L137.172 124.353C137.172 124.353 137.261 124.486 137.306 124.575L178.214 185.464C179.326 187.13 181.794 187.13 182.906 185.464L224.437 123.642H224.392C229.706 115.47 232.819 105.766 232.819 95.3069ZM180.593 82.6494C187.552 82.6494 193.222 88.312 193.222 95.3069C193.222 102.302 187.552 107.92 180.593 107.92C173.634 107.92 167.921 102.257 167.921 95.3069C167.921 88.3564 173.59 82.6494 180.593 82.6494Z"/>
</mask>
<path d="M232.819 95.3069C232.819 64.5736 206.228 40.0357 174.813 43.4111C150.912 45.987 131.481 65.2397 128.679 89.0892C127.167 101.902 130.391 113.871 136.728 123.642H136.683L137.172 124.353C137.172 124.353 137.261 124.486 137.306 124.575L178.214 185.464C179.326 187.13 181.794 187.13 182.906 185.464L224.437 123.642H224.392C229.706 115.47 232.819 105.766 232.819 95.3069ZM180.593 82.6494C187.552 82.6494 193.222 88.312 193.222 95.3069C193.222 102.302 187.552 107.92 180.593 107.92C173.634 107.92 167.921 102.257 167.921 95.3069C167.921 88.3564 173.59 82.6494 180.593 82.6494Z" fill="#2771FF"/>
<path d="M232.819 95.3069C232.819 64.5736 206.228 40.0357 174.813 43.4111C150.912 45.987 131.481 65.2397 128.679 89.0892C127.167 101.902 130.391 113.871 136.728 123.642H136.683L137.172 124.353C137.172 124.353 137.261 124.486 137.306 124.575L178.214 185.464C179.326 187.13 181.794 187.13 182.906 185.464L224.437 123.642H224.392C229.706 115.47 232.819 105.766 232.819 95.3069ZM180.593 82.6494C187.552 82.6494 193.222 88.312 193.222 95.3069C193.222 102.302 187.552 107.92 180.593 107.92C173.634 107.92 167.921 102.257 167.921 95.3069C167.921 88.3564 173.59 82.6494 180.593 82.6494Z" stroke="white" stroke-width="18" mask="url(#path-29-inside-2_1026_18)"/>
<path d="M232.819 95.3069C232.819 64.5736 206.228 40.0357 174.813 43.4111C150.912 45.987 131.481 65.2397 128.679 89.0892C127.167 101.902 130.391 113.871 136.728 123.642H136.683L137.172 124.353C137.172 124.353 137.261 124.486 137.306 124.575L178.214 185.464C179.326 187.13 181.794 187.13 182.906 185.464L224.437 123.642H224.392C229.706 115.47 232.819 105.766 232.819 95.3069ZM180.593 82.6494C187.552 82.6494 193.222 88.312 193.222 95.3069C193.222 102.302 187.552 107.92 180.593 107.92C173.634 107.92 167.921 102.257 167.921 95.3069C167.921 88.3564 173.59 82.6494 180.593 82.6494Z" stroke="white" stroke-width="18" mask="url(#path-29-inside-2_1026_18)"/>
<path d="M364.399 282.84C361.131 301.116 352.86 315.95 339.432 325.787C337.142 327.475 335.007 329.007 332.962 330.45C322.912 319.592 306.682 303.003 298.589 299.606C286.317 294.454 279.336 299.184 269.131 296.208C265.04 295.009 257.436 291.279 249.788 286.526C238.316 279.398 226.71 269.961 226.643 263.232C226.599 257.614 227.133 247.199 227.688 238.228C228.244 229.235 228.822 221.64 228.822 221.64L205.166 191.795C205.166 191.795 176.997 167.635 169.749 160.751C162.457 153.844 160.723 146.139 160.723 146.139C158.81 138.766 162.212 136.479 167.081 136.946H167.17H167.303C167.303 136.946 167.415 136.946 167.659 136.968C170.905 137.434 174.707 138.966 178.02 141.009C179.087 141.653 180.71 142.697 182.8 143.985C195.25 151.846 222.997 169.922 227.177 174.674C228.778 176.45 233.358 181.847 238.849 188.286C240.895 184.6 243.541 180.714 245.675 181.247C246.809 181.513 251.589 182.135 258.014 182.912C259.86 181.047 262.594 178.516 264.462 178.094C266.707 177.605 276.69 183.001 281.804 185.866C283.471 184.267 285.494 182.602 286.984 182.291C289.363 181.735 300.124 187.665 304.57 190.174C305.259 190.529 305.86 190.862 306.438 191.262H306.482C309.217 193.149 311.04 196.48 314.442 212.069C318.799 232.188 327.759 251.53 337.809 261.922C342.767 267.029 354.105 275.512 364.399 282.84Z" fill="#FFD0BE"/>
<path style="mix-blend-mode:screen" d="M182.8 144.007C181.444 149.092 178.464 151.579 177.064 152.512C176.597 152.823 176.019 152.845 175.53 152.556C171.883 150.514 162.079 145.317 162.924 140.454C163.502 137.079 166.481 136.923 167.17 136.946C167.259 136.923 167.303 136.946 167.303 136.946C167.303 136.946 167.437 136.946 167.659 136.946C170.905 137.39 174.729 138.944 178.02 140.987C179.087 141.631 180.71 142.675 182.8 143.985V144.007Z" fill="#FFD0BE"/>
<path d="M252.723 273.425C252.723 273.425 251.878 280.553 249.788 286.527C238.316 279.398 226.71 269.961 226.643 263.232C226.599 257.614 227.133 247.199 227.688 238.228C228.244 229.235 228.822 221.64 228.822 221.64C228.822 221.64 230.045 223.017 231.757 224.949C238.427 232.454 243.496 241.27 246.609 250.797C247.698 254.128 248.61 256.859 248.81 257.325C249.366 258.613 252.701 273.425 252.701 273.425H252.723Z" fill="url(#paint2_linear_1026_18)"/>
<path d="M54.1152 210.892C47.0673 235.319 33.3718 248.643 19.8319 245.689C9.58243 243.446 -9.13777 232.255 10.494 190.44C30.1257 148.626 27.3466 124.666 36.6623 117.36C44.2437 111.408 57.2945 121.001 60.0514 146.516C62.4748 169.056 57.4279 199.456 54.1152 210.914V210.892Z" fill="#EDF6FF"/>
<path d="M262.261 361.828C262.261 361.828 280.803 360.606 301.346 356.121C313.864 353.389 323.668 348.881 331.717 345.773C355.662 336.557 373.537 365.336 340.543 380.015C309.372 393.893 261.905 382.324 250.277 373.441C238.649 364.559 262.261 361.828 262.261 361.828Z" fill="#EDF6FF"/>
<path d="M101.716 86.9817L97.7808 96.0862L86.7977 121.468L82.0843 132.416L74.3917 106.523C72.6797 100.705 75.9925 94.5984 81.8175 92.8663L101.716 86.9817Z" fill="url(#paint3_linear_1026_18)"/>
<path d="M97.7808 96.0862L86.7977 121.468L82.2622 106.146C81.4396 103.37 83.0181 100.461 85.7972 99.6392L97.7808 96.0862Z" fill="#D6EDFC"/>
<path d="M336.852 129.307C347.695 129.307 356.484 120.528 356.484 109.699C356.484 98.8694 347.695 90.0906 336.852 90.0906C326.01 90.0906 317.221 98.8694 317.221 109.699C317.221 120.528 326.01 129.307 336.852 129.307Z" fill="#CFEEFF"/>
<path d="M272.377 143.163C279.756 143.163 285.739 137.188 285.739 129.817C285.739 122.447 279.756 116.471 272.377 116.471C264.997 116.471 259.015 122.447 259.015 129.817C259.015 137.188 264.997 143.163 272.377 143.163Z" fill="#CFEEFF"/>
<path d="M253.634 46.6552C253.634 50.2748 250.7 53.206 247.076 53.206C243.452 53.206 240.517 50.2748 240.517 46.6552C240.517 43.0356 243.452 40.1044 247.076 40.1044C250.7 40.1044 253.634 43.0356 253.634 46.6552Z" fill="#CFEEFF"/>
<path d="M19.9208 273.114C23.5431 273.114 26.4795 270.181 26.4795 266.563C26.4795 262.945 23.5431 260.012 19.9208 260.012C16.2985 260.012 13.362 262.945 13.362 266.563C13.362 270.181 16.2985 273.114 19.9208 273.114Z" fill="#CFEEFF"/>
<path d="M218.862 393.383C226.315 393.383 232.357 387.348 232.357 379.903C232.357 372.459 226.315 366.424 218.862 366.424C211.409 366.424 205.366 372.459 205.366 379.903C205.366 387.348 211.409 393.383 218.862 393.383Z" fill="#CFEEFF"/>
</g>
<defs>
<linearGradient id="paint0_linear_1026_18" x1="116.575" y1="245.067" x2="121.392" y2="307.399" gradientUnits="userSpaceOnUse">
<stop stop-color="#FFD0BE"/>
<stop offset="0.85" stop-color="#FF9E8A"/>
<stop offset="1" stop-color="#FF9581"/>
</linearGradient>
<linearGradient id="paint1_linear_1026_18" x1="95.6098" y1="74.3606" x2="246.784" y2="309.366" gradientUnits="userSpaceOnUse">
<stop stop-color="#B0C3FF"/>
<stop offset="0.82" stop-color="#3658C1"/>
<stop offset="1" stop-color="#3352B0"/>
</linearGradient>
<linearGradient id="paint2_linear_1026_18" x1="237.538" y1="273.025" x2="242.905" y2="230.654" gradientUnits="userSpaceOnUse">
<stop stop-color="#FF9581" stop-opacity="0"/>
<stop offset="0.14" stop-color="#FF9581" stop-opacity="0.01"/>
<stop offset="0.26" stop-color="#FF9581" stop-opacity="0.06"/>
<stop offset="0.39" stop-color="#FF9581" stop-opacity="0.13"/>
<stop offset="0.51" stop-color="#FF9581" stop-opacity="0.24"/>
<stop offset="0.63" stop-color="#FF9581" stop-opacity="0.38"/>
<stop offset="0.75" stop-color="#FF9581" stop-opacity="0.54"/>
<stop offset="0.87" stop-color="#FF9581" stop-opacity="0.74"/>
<stop offset="0.98" stop-color="#FF9581" stop-opacity="0.96"/>
<stop offset="1" stop-color="#FF9581"/>
</linearGradient>
<linearGradient id="paint3_linear_1026_18" x1="83.3961" y1="80.8084" x2="161.593" y2="348.999" gradientUnits="userSpaceOnUse">
<stop stop-color="#003177"/>
<stop offset="1" stop-color="#003154"/>
</linearGradient>
<clipPath id="clip0_1026_18">
<rect width="366" height="431" fill="white"/>
</clipPath>
</defs>
</svg>
