<svg width="152" height="152" viewBox="0 0 152 152" fill="none" xmlns="http://www.w3.org/2000/svg">
<path d="M152 76C152 117.974 117.974 152 76 152C34.0264 152 0 117.974 0 76C0 34.0264 34.0264 0 76 0C117.974 0 152 34.0264 152 76Z" fill="#2771FF"/>
<g clip-path="url(#clip0_133_156)">
<path d="M118.733 48.8891C119.386 48.9033 120.053 49.1008 120.685 49.2772C123.502 50.0816 124.566 51.0976 127 52.4453C123.182 52.3889 122.87 55.3594 120.032 57.0457C116.15 56.8482 117.47 58.8309 115.114 60.4678C114.242 61.0746 113.106 61.0958 112.276 61.8155C111.041 62.9021 110.672 65.3152 110.516 66.9592C110.36 68.575 110.438 70.4801 111.51 71.7078C111.985 72.2581 112.553 72.7803 112.886 73.4647C113.369 74.4596 113.475 75.8214 114.121 76.6822C114.909 77.7335 116.037 78.3756 116.803 79.4622L116.867 79.5539C115.831 80.1325 114.532 80.1395 113.567 80.8592C112.858 81.3884 112.574 82.214 111.964 82.8278C111.126 83.6745 109.878 83.9991 109.338 85.2198C109.047 85.876 108.92 86.7015 108.359 87.146C107.855 87.5482 107.344 87.1601 106.848 87.4282C105.762 88.0209 105.35 89.9966 104.996 91.182C101.845 90.8927 101.902 92.7766 99.553 93.6021C99.475 93.6303 99.2763 93.708 99.1911 93.6938C98.7867 93.6374 97.9422 92.6849 97.5023 92.4238C96.2889 91.697 93.4718 91.7817 92.1804 92.2403C90.2787 92.9106 91.4069 94.7028 90.3212 95.6695C89.7607 96.1705 89.0511 96.3257 88.3841 96.5656C87.5751 96.869 86.3617 97.6875 85.7941 98.4213C85.5457 98.7388 85.3754 99.1621 85.2051 99.529C84.1407 99.8042 83.6227 100.115 82.9415 101.102C82.239 101.434 81.4443 101.187 80.7205 101.519C80.0109 101.85 79.6277 102.443 79.3297 103.212C79.947 104.877 81.6358 107.53 83.1047 108.349C83.8143 108.744 85.7373 108.836 86.1488 109.457C85.865 109.682 84.8858 109.689 84.3962 109.993C83.5801 110.494 83.1757 111.404 82.459 112.018C81.7778 112.604 80.1457 112.928 79.2729 113.295C79.2162 112.611 79.1239 111.933 79.0671 111.249C79.5426 110.917 80.3586 110.656 80.5644 110.021C80.7063 109.591 80.5289 109.04 80.3444 108.659C79.9257 107.806 77.4847 105.216 76.6687 104.983C75.4908 104.637 74.4832 105.858 73.3124 105.865C72.7731 105.865 72.3473 105.414 71.8364 105.301C70.8643 105.096 69.8708 105.442 68.9058 105.265C68.1465 105.124 66.408 104.038 65.3933 103.692C64.4354 104.306 63.6052 105.407 62.5408 105.781C61.8667 106.02 61.1003 105.879 60.4191 106.176C59.823 106.437 59.3547 106.938 58.7303 107.156C57.8859 106.945 57.2898 106.881 56.4454 107.171C55.5158 106.747 54.6785 106.098 53.756 105.689C53.238 105.456 52.7697 105.505 52.2588 105.773C50.9957 106.444 49.8604 108.335 49.4559 109.802C49.2218 110.656 49.3708 111.221 49.7256 111.976C49.8249 112.145 49.9455 112.307 50.052 112.469C50.1158 112.561 50.1868 112.653 50.2436 112.759C50.4919 113.182 50.8183 113.881 50.7403 114.389C50.6196 114.551 50.5274 114.614 50.3358 114.643C49.1934 114.826 47.9942 111.983 46.9227 111.489C44.0417 110.155 40.6215 110.332 38.0954 108.165C38.4856 107.975 38.9611 107.791 39.3088 107.516C40.0538 106.924 40.4299 105.484 40.5931 104.525C40.7918 103.332 41.0827 99.9594 40.3377 99.0775C39.9403 98.6118 39.2875 98.5059 38.8972 98.0191C38.4218 97.4193 38.1238 96.6079 37.7264 95.9305C37.3574 95.2955 36.9104 94.7169 36.5343 94.0819C36.4065 91.2737 35.5834 89.8625 34.1713 87.6329C34.3203 86.6098 33.9726 84.62 33.4121 83.7874C33.1424 83.3923 32.7309 83.0607 32.5322 82.6161C32.2696 82.0164 32.2271 81.2755 32.0638 80.6264C32.7167 80.0337 33.036 79.3281 33.1637 78.3967C33.4334 76.4493 32.9721 75.1581 31.9787 73.6058C32.22 73.507 32.518 73.4083 32.7309 73.2319C33.4405 72.6462 34.1075 71.2351 34.3913 70.3178C34.5119 69.9086 34.5971 69.3794 34.7745 69.0125C34.8525 68.8572 34.888 68.8431 35.0299 68.8008C35.179 68.829 35.2641 68.8854 35.3705 69.0125C35.8602 69.5981 35.8176 70.6353 36.2362 71.2844C37.1729 72.7238 38.8475 73.4576 40.1532 74.3749C40.6783 74.7418 41.1679 75.1722 41.7072 75.5109C42.3032 75.8849 42.7787 75.6308 43.3818 75.4262C44.1908 75.7085 44.9216 76.2729 45.7589 76.4705C46.5466 76.661 47.3059 76.5269 48.1006 76.7951C49.6617 77.3313 51.2157 78.1357 52.7981 78.5449C53.5432 78.7354 54.345 78.425 55.0617 78.6296C56.6015 79.0741 57.7794 80.5417 59.4966 80.4429C61.0222 80.3512 61.9731 78.5379 63.6548 78.3826C64.7689 78.2839 65.8687 78.5873 66.9757 78.679C68.1536 78.7778 69.3883 78.5661 70.552 78.3756C73.5465 77.8746 76.4771 76.8303 78.3433 73.9586C79.0529 72.8579 80.1244 71.0022 80.2663 69.6545C80.3089 69.2312 80.2238 68.7796 80.167 68.3633C82.3809 66.2324 86.2127 67.4602 88.8737 67.2203C90.9386 67.0368 92.9396 66.4159 94.8626 65.548C99.0066 63.6782 101.88 61.5262 105.102 58.0265C106.237 56.7917 107.217 55.2676 108.572 54.3222C109.509 53.666 110.616 53.4472 111.673 53.1721C113.142 52.7769 114.731 52.3818 116.072 51.5774C116.25 51.4716 116.427 51.3587 116.597 51.2317C116.768 51.1047 116.931 50.9706 117.087 50.8225C117.243 50.6743 117.392 50.5261 117.534 50.3638C117.676 50.2015 117.811 50.0322 117.939 49.8558C118.144 49.5736 118.336 49.1502 118.606 48.9456C118.641 48.9174 118.676 48.8962 118.712 48.868L118.733 48.8891Z" fill="white"/>
<path d="M74.7599 74.0291C69.2605 74.0291 64.8043 69.5981 64.8043 64.1298C64.8043 58.6615 69.2605 54.2304 74.7599 54.2304C80.2592 54.2304 84.7154 58.6615 84.7154 64.1298C84.7154 69.591 80.2592 74.0221 74.7599 74.0291ZM74.7599 58.1958C71.4603 58.1958 68.7851 60.8559 68.7851 64.1368C68.7851 67.4178 71.4603 70.0779 74.7599 70.0779C78.0595 70.0779 80.7346 67.4178 80.7346 64.1368C80.7346 60.8559 78.0595 58.2029 74.7599 58.1958Z" fill="white"/>
<path d="M74.7599 97.7862L57.971 78.0933C57.7368 77.797 57.5098 77.5006 57.2756 77.1972C54.4088 73.4364 52.8619 68.8501 52.8619 64.1368C52.8619 52.1136 62.6685 42.3624 74.7599 42.3624C86.8513 42.3624 96.6579 52.1136 96.6579 64.1368C96.6579 68.8501 95.111 73.4364 92.2513 77.1972C92.2513 77.1972 91.6553 77.9804 91.563 78.0862L74.767 97.7862H74.7599ZM60.4546 74.8123C60.4546 74.8123 60.9158 75.4191 61.0222 75.5532L74.7599 91.6617L88.5118 75.532C88.5969 75.4262 89.0653 74.8123 89.0653 74.8053C91.4069 71.736 92.6771 67.9893 92.67 64.1297C92.67 54.2939 84.6516 46.3137 74.7528 46.3137C64.854 46.3137 56.8356 54.2868 56.8356 64.1297C56.8356 67.9893 58.0987 71.736 60.4475 74.8053" fill="white"/>
<path d="M77.6338 74.0291C72.1345 74.0291 67.6782 69.5981 67.6782 64.1298C67.6782 58.6615 72.1345 54.2304 77.6338 54.2304C83.1331 54.2304 87.5893 58.6615 87.5893 64.1298C87.5893 69.591 83.1331 74.0221 77.6338 74.0291ZM77.6338 58.1958C74.3342 58.1958 71.659 60.8559 71.659 64.1368C71.659 67.4178 74.3342 70.0779 77.6338 70.0779C80.9334 70.0779 83.6085 67.4178 83.6085 64.1368C83.6085 60.8559 80.9334 58.2029 77.6338 58.1958Z" fill="#2771FF"/>
<path d="M77.6337 97.7862L60.8448 78.0933C60.6107 77.797 60.3836 77.5006 60.1494 77.1972C57.2827 73.4364 55.7358 68.8501 55.7358 64.1368C55.7358 52.1136 65.5423 42.3624 77.6337 42.3624C89.7252 42.3624 99.5317 52.1136 99.5317 64.1368C99.5317 68.8501 97.9848 73.4364 95.1252 77.1972C95.1252 77.1972 94.5291 77.9804 94.4369 78.0862L77.6408 97.7862H77.6337ZM63.3284 74.8123C63.3284 74.8123 63.7896 75.4191 63.8961 75.5532L77.6337 91.6617L91.3856 75.532C91.4708 75.4262 91.9391 74.8123 91.9391 74.8053C94.2807 71.736 95.5509 67.9893 95.5438 64.1297C95.5438 54.2939 87.5254 46.3137 77.6267 46.3137C67.7279 46.3137 59.7095 54.2868 59.7095 64.1297C59.7095 67.9893 60.9726 71.736 63.3213 74.8053" fill="#2771FF"/>
</g>
<defs>
<clipPath id="clip0_133_156">
<rect width="95" height="84" fill="white" transform="translate(32 37)"/>
</clipPath>
</defs>
</svg>
